Coordinates
version=1
nRows=16
nColumns=33
inDegrees=yes

Units are S.I. units (second, meters, Newtons, ...)
Angles are in degrees.

endheader
time	ground_thorax_rot_x	ground_thorax_rot_y	ground_thorax_rot_z	ground_thorax_tx	ground_thorax_ty	ground_thorax_tz	clav_prot_r	clav_elev_r	scapula_abduction_r	scapula_elevation_r	scapula_upward_rot_r	scapula_winging_r	shoulder_elv_r	plane_of_elev_r	axial_rot_r	elbow_flexion_r	pro_sup_r	wrist_flex_r	wrist_dev_r	clav_prot_l	clav_elev_l	scapula_abduction_l	scapula_elevation_l	scapula_upward_rot_l	scapula_winging_l	shoulder_elv_l	plane_of_elev_l	axial_rot_l	elbow_flexion_l	pro_sup_l	wrist_flex_l	wrist_dev_l
      6.29000000	     -2.42165158	      4.57954507	     10.52696494	     -0.10397275	      1.02435222	      0.01277427	     13.45159840	    -15.39520949	     30.01718834	    -12.39084771	     12.67627986	     -5.99875971	     -4.60519037	    -57.66045771	    121.51555255	    -50.64810310	   -152.99871151	      2.85150696	      4.34709018	     20.88340055	     -9.08189396	    -30.78055733	     -9.80758624	    -29.06815082	      8.56629535	     56.77226232	     -3.07783897	     11.08942499	     31.14634418	     18.37395099	     14.49133649	    -11.38951773
      6.30000000	     -2.33354110	      4.49286687	     10.67897684	     -0.10483745	      1.02427035	      0.01278052	     13.29184415	    -15.21326966	     29.53153594	    -12.10265372	     12.28229786	     -5.93463180	     -4.96395794	    -57.91212057	    121.43877704	    -51.80712667	   -153.38091897	      3.09255657	      4.32865318	     20.67843650	     -8.88865548	    -30.46212117	    -10.12554027	    -29.35757444	      8.38361863	     56.72908954	     -3.48738812	     11.26809174	     32.34927743	     18.26182474	     14.63558920	    -11.60812003
      6.31000000	     -2.46820498	      4.40038073	     10.80378081	     -0.10550940	      1.02514703	      0.01271811	     13.09625161	    -15.98843676	     28.67031351	    -12.51691064	     11.41610819	     -5.13469699	     -5.27768260	    -58.58255613	    121.00823382	    -53.16494903	   -156.21686403	      3.22487111	      4.47644263	     20.15920442	     -9.03614503	    -29.58016224	    -10.09611541	    -29.50545883	      7.85009117	     57.43441500	     -4.69650487	     10.53721962	     33.81947992	     18.00260604	     16.12922207	    -11.51747321
      6.32000000	     -2.34500733	      4.32356301	     10.84298175	     -0.10627393	      1.02491924	      0.01260482	     12.86937878	    -15.68472634	     28.20590745	    -12.18808101	     11.22763343	     -5.13679078	     -5.60014111	    -58.90414445	    121.11542919	    -54.29864345	   -156.44357391	      3.47667602	      4.41184700	     19.96191537	     -8.73859160	    -29.27957599	    -10.47919925	    -29.73756232	      7.70174752	     57.26544197	     -4.91063847	     10.93518451	     34.96532495	     17.79873275	     16.11582248	    -11.69532787
      6.33000000	     -2.27860659	      4.21974462	     10.97833729	     -0.10713545	      1.02459641	      0.01255007	     12.69409245	    -15.42292445	     27.75929103	    -11.85890729	     10.93438265	     -5.12691703	     -5.99797175	    -59.25830497	    121.22478186	    -55.52256150	   -156.73942095	      3.75005342	      4.37847469	     19.78933126	     -8.45662528	    -29.02229209	    -10.87724330	    -30.03184827	      7.56496414	     57.20617611	     -5.30717393	     11.06003691	     36.17422945	     17.57673654	     16.16712152	    -11.87837423
      6.34000000	     -2.36953022	      4.09528518	     11.08867809	     -0.10751754	      1.02540652	      0.01234330	     12.30641247	    -16.16905731	     26.67097640	    -12.29315615	     10.18790689	     -4.23559304	     -6.21874799	    -60.14533476	    121.22199360	    -56.83230298	   -159.95374488	      3.93071470	      4.24302566	     19.17063512	     -8.55959092	    -27.97303431	    -10.88299087	    -30.16119569	      6.95883772	     57.80808116	     -6.47902374	     10.36740936	     37.62371346	     16.15245162	     17.18814893	    -11.17845904
      6.35000000	     -2.30249759	      4.07124197	     11.05867126	     -0.10841105	      1.02492312	      0.01223581	     12.17707547	    -15.84578895	     26.32339558	    -11.91578097	      9.93167615	     -4.30863629	     -6.49311161	    -60.42806865	    121.33033315	    -58.09500899	   -160.09105085	      4.20369240	      4.18132254	     19.04873024	     -8.22960489	    -27.79951516	    -11.28739445	    -30.38158911	      6.88109853	     57.78278030	     -6.73476946	     10.42252040	     38.84415407	     15.96395849	     17.14879143	    -11.38869294
      6.36000000	     -2.22421407	      3.98684376	     11.24252388	     -0.10927755	      1.02444196	      0.01219188	     12.02876518	    -15.55257497	     25.87220591	    -11.52328657	      9.55278916	     -4.32163235	     -6.86370336	    -60.77775850	    121.38657217	    -59.37641956	   -160.28524252	      4.47625584	      4.14421168	     18.88757996	     -7.95141358	    -27.56374153	    -11.70332340	    -30.71714002	      6.74690553	     57.73288973	     -7.17725982	     10.44536792	     40.15205863	     15.73453388	     17.15045281	    -11.58777253
      6.37000000	     -2.19992293	      3.87512893	     11.72336512	     -0.11031941	      1.02415312	      0.01210339	     11.91230109	    -15.48221243	     25.30719172	    -11.23210217	      8.89529938	     -4.16186974	     -7.30060644	    -61.29961120	    121.35617635	    -60.59432894	   -160.78476440	      4.70600277	      4.12955086	     18.67791648	     -7.80568006	    -27.24584648	    -12.06851912	    -31.18813748	      6.53257549	     57.84645372	     -7.99502561	     10.06560866	     41.58589240	     15.33924431	     17.29035291	    -11.65703983
      6.38000000	     -2.14322943	      3.81406987	     11.84055182	     -0.11106285	      1.02392315	      0.01204608	     11.74155304	    -15.40680594	     24.75315539	    -10.99634556	      8.40822203	     -3.99897500	     -7.62228420	    -61.75308234	    121.26326112	    -61.97717836	   -161.25559662	      4.95585611	      4.11016935	     18.44648338	     -7.64985839	    -26.88794058	    -12.37622174	    -31.51417233	      6.31549973	     57.98459537	     -8.59623166	      9.95970317	     43.04570038	     14.92151320	     17.40088949	    -11.69353784
      6.39000000	     -2.28155919	      3.81240005	     11.74135358	     -0.11160814	      1.02463362	      0.01195590	     11.48900754	    -16.14510091	     23.81832231	    -11.35872716	      7.51663608	     -3.20220354	     -7.78281344	    -62.45171137	    120.81797226	    -63.55934419	   -162.80440105	      5.08500522	      4.08888263	     17.96867457	     -7.84419657	    -26.07661881	    -12.31108363	    -31.68537664	      5.84192159	     58.88756451	     -9.73883519	      9.18727528	     44.65523429	     13.82420390	     17.85489799	    -10.98935556
      6.40000000	     -2.18689326	      3.77214734	     11.62844435	     -0.11227176	      1.02427048	      0.01189150	     11.28534651	    -15.81476288	     23.38874082	    -10.99394914	      7.32353011	     -3.23253555	     -8.08513196	    -62.74703530	    120.89261933	    -64.92622213	   -162.91473425	      5.36283928	      4.05839262	     17.79160262	     -7.53357430	    -25.80524091	    -12.69044694	    -31.87526678	      5.70293980	     58.80416447	     -9.96081734	      9.50824673	     45.91874694	     13.60408301	     17.80950094	    -11.15889580
      6.41000000	     -2.09211923	      3.71777672	     11.76397328	     -0.11297646	      1.02380062	      0.01178199	     11.09842103	    -15.50992192	     22.90178331	    -10.59792379	      6.98350095	     -3.22695622	     -8.48107455	    -63.20336083	    120.94806073	    -66.30466000	   -163.02869738	      5.64111216	      4.02882304	     17.59311698	     -7.23368070	    -25.50924394	    -13.12710448	    -32.20210618	      5.52947200	     58.70635755	    -10.36801378	      9.63597509	     47.40892504	     13.38323349	     17.80565786	    -11.35272833
      6.42000000	     -2.03389021	      3.64859496	     11.90556231	     -0.11373125	      1.02345304	      0.01186068	     10.93405393	    -15.25472232	     22.40904573	    -10.21780565	      6.56818901	     -3.18941176	     -8.90241805	    -63.61726557	    120.95689710	    -67.72084973	   -163.13981559	      5.92029805	      3.99062648	     17.39458004	     -6.98123847	    -25.21069285	    -13.52283789	    -32.53043014	      5.34642178	     58.69122555	    -10.88066082	      9.72395170	     48.89309554	     13.17864136	     17.81979509	    -11.52363172
      6.43000000	     -2.16693262	      3.56985831	     12.19215814	     -0.11435706	      1.02431940	      0.01168980	     10.75967546	    -16.06185109	     21.48163288	    -10.53968492	      5.42570924	     -2.37616619	     -9.32299618	    -64.50130440	    120.16726318	    -69.26627372	   -163.65723748	      6.08957016	      3.80074708	     16.87773015	     -7.27018059	    -24.34560692	    -13.44041458	    -32.84586077	      4.83303865	     59.54062799	    -12.41975522	      8.93216482	     50.79292314	     12.79153739	     18.21866698	    -10.95404275
      6.44000000	     -2.08947018	      3.47538331	     12.30858938	     -0.11490865	      1.02412684	      0.01157036	     10.49780807	    -15.80269610	     20.92730743	    -10.21795220	      5.17870852	     -2.30911831	     -9.79051894	    -65.06117147	    120.26356382	    -70.60332548	   -163.72224911	      6.35439281	      3.78637716	     16.60544120	     -6.95049773	    -23.91854843	    -13.87690535	    -33.12163253	      4.59712582	     59.38284769	    -12.83205272	      9.20852253	     52.22473986	     12.58315164	     18.23607367	    -11.06747415
